<svg xmlns="http://www.w3.org/2000/svg" xmlns:svg="http://www.w3.org/2000/svg" id="svg4" aria-hidden="true" class="svg-inline--fa fa-ethernet fa-w-16" data-icon="ethernet" data-prefix="fas" focusable="false" role="img" version="1.1" viewBox="0 0 512 512"><metadata id="metadata10"/><path id="path2" fill="currentColor" d="M496 192h-48v-48c0-8.8-7.2-16-16-16h-48V80c0-8.8-7.2-16-16-16H144c-8.8 0-16 7.2-16 16v48H80c-8.8 0-16 7.2-16 16v48H16c-8.8 0-16 7.2-16 16v224c0 8.8 7.2 16 16 16h80V320h32v128h64V320h32v128h64V320h32v128h64V320h32v128h80c8.8 0 16-7.2 16-16V208c0-8.8-7.2-16-16-16z"/><rect id="rect12" width="73.015" height="607.722" x="-426.516" y="-283.594" ry="27.548" transform="matrix(-0.69508218,-0.71893029,-0.77956424,0.62632228,0,0)" style="fill:#d40000;stroke-width:1.41899"/></svg>